<svg xmlns="http://www.w3.org/2000/svg"
    xmlns:xlink="http://www.w3.org/1999/xlink" viewBox="0 0 380 540">
    <defs>
        <radialGradient id="hex-frame-stroke" cx="0" cy="0" gradientTransform="matrix(201.88813,61.382495,-31170.321,102519.62,-2.0097474,295.40586)" gradientUnits="userSpaceOnUse" r="1">
            <stop offset="0" stop-color="#1185b5"></stop>
            <stop offset=".29" stop-color="#d7f7ff"></stop>
            <stop offset=".53" stop-color="#5ef6d8"></stop>
            <stop offset=".84" stop-color="#5ef6d8"></stop>
            <stop offset=".87" stop-color="#1990b9"></stop>
            <stop offset="1" stop-color="#3f9fc6"></stop>
        </radialGradient>
        <linearGradient id="hex-frame-bg" gradientUnits="userSpaceOnUse" gradientTransform="matrix(1.0362797,0,0,1.0362797,150.50099,288.55634)" x1="-92.955505" y1="-124.51587" x2="143.67026" y2="226.29623">
            <stop style="stop-color:#004e5f" offset="0.36240309" />
            <stop style="stop-color:#8e94e1" offset="0.77810073" />
        </linearGradient>
        <path id="hex-frame" stroke="url(#hex-frame-stroke)" stroke-linejoin="round" stroke-width="16" d="m 177.75041,189.74577 c 7.64778,-4.12577 17.10688,-4.12577 24.75465,0 l 118.43998,65.2074 c 7.54715,4.2264 12.07544,11.77355 12.07544,19.72322 v 130.21353 c 0,7.94966 -4.52829,15.49681 -12.07544,19.62259 l -118.43998,65.10677 c -7.64777,4.2264 -17.10687,4.2264 -24.75465,0 L 59.310436,424.41188 A 22.641456,22.641456 0 0 1 47.235,404.78929 V 274.57576 c 0,-7.94967 4.42766,-15.39619 12.075436,-19.72323 z"/>
        <clipPath id="avatar-upper">
            <path d="M 190,488 325.52665,413 H 380 V 0 H 0 v 413 h 55 z" />
        </clipPath>
        <clipPath id="hex-frame-foreground-clip">
            <rect x="0" y="413" width="380" height="187"/>
        </clipPath>
    </defs>
    <use id="hex-frame-background" xlink:href="#hex-frame" fill="url(#hex-frame-bg)"/>
    <use xlink:href="#hex-frame" fill="none" clip-path="url(#hex-frame-foreground-clip)"/>
</svg>
