<svg width="32" height="32" viewBox="0 0 32 32"
    xmlns="http://www.w3.org/2000/svg">
    <path d="M16.0822 8.96002H3.28223V23.04H16.0822V8.96002Z" fill="#5EF6D8"/>
    <path d="M14.8025 1.28003V2.56003H13.5225V3.84003H10.9625V5.12003H9.6825V6.40003H7.1225V7.68003H4.5625V8.96003H5.8425V10.24H7.1225V10.7292V11.52H8.2905H8.4025H9.6825V12.8H10.9625V14.08H13.5225V15.36H14.8025H16.0825V1.28003H14.8025Z" fill="#D7F7FF"/>
    <path d="M14.8025 16.64H13.5225V17.92H10.9625V19.2H9.6825V20.48H8.4025H8.2905H7.1225V21.2709V21.76H5.8425V23.04H4.5625V24.32H7.1225V25.6H9.6825V26.88H10.9625V28.16H13.5225V29.44H14.8025V30.72H16.0825V16.64H14.8025Z" fill="#1EA1C4"/>
    <path d="M16.0818 23.04H28.8818V8.95998L16.0818 8.95998V23.04Z" fill="#1EA1C4"/>
    <path d="M26.322 23.04V21.76H25.042V21.2709V20.48H23.874H23.762H22.482V19.2H21.202V17.92H18.642V16.64H17.362H16.082V30.72H17.362V29.44H18.642V28.16H21.202V26.88H22.482V25.6H25.042V24.32H27.602V23.04H26.322Z" fill="#0569A6"/>
    <path d="M25.042 7.68003V6.40003H22.482V5.12003H21.202V3.84003H18.642V2.56003H17.362V1.28003H16.082V15.36H17.362H18.642V14.08H21.202V12.8H22.482V11.52H23.762H23.874H25.042V10.7292V10.24H26.322V8.96003H27.602V7.68003H25.042Z" fill="#5EF6D8"/>
    <path d="M28.8206 7.68V6.4H26.3223V5.12H23.7623V3.84H22.4823V2.56H19.9223V1.28H18.6423V0H13.5223V1.28H12.2423V2.56H9.68229V3.84H8.4V5.12H5.84V6.4H3.34171V7.68H2V8.96V24.32H3.28V25.6H5.84V26.88H8.4V28.16H9.68V29.44H12.24V30.72H13.52V32H18.64V30.72H19.92V29.44H22.48V28.16H23.76V26.88H26.32V25.6H28.88V24.32H30.16V8.96V7.68H28.8206ZM28.8823 23.04H27.6V24.32H25.04V25.6H22.48V26.88H21.2V28.16H18.64V29.44H17.36V30.72H14.8V29.44H13.52V28.16H10.96V26.88H9.68V25.6H7.12V24.32H4.56V23.04H3.28V8.96H4.56V7.68H7.12V6.4H9.68V5.12H10.96V3.84H13.52V2.56H14.8V1.28H17.36V2.56H18.64V3.84H21.2V5.12H22.48V6.4H25.04V7.68H27.6V8.96H28.88L28.8823 23.04Z" fill="#2450A4"/>
</svg>
