<?xml version="1.0" encoding="UTF-8" standalone="no"?>
<svg viewBox="0 0 57.520256 100.00005" version="1.1"
   xmlns="http://www.w3.org/2000/svg">
   <path id="skeleton" fill="currentColor" d="M 22.249056,1.3418819e-4 C 20.37675,-0.00531913 18.502744,0.15478809 16.699513,0.60014238 l -0.337993,0.0834331 -0.334442,0.10011971 -0.332668,0.1001197 c -0.110884,0.0363555 -0.231013,0.0762473 -0.341898,0.12532711 -0.454443,0.1854129 -0.872648,0.5071605 -1.161672,0.9088881 -0.290844,0.4017278 -0.465365,0.8489593 -0.605334,1.2852248 -0.138151,0.4417185 -0.24354,0.8668385 -0.365331,1.2976509 -0.241763,0.8561707 -0.452484,1.7144914 -0.672435,2.5615732 -0.20359,0.850718 -0.414595,1.6902499 -0.600008,2.5264251 -0.352648,1.5196579 -0.815983,3.6519309 -1.295876,6.0132179 -0.47989,2.361287 -0.976174,4.949866 -1.4378888,7.374775 -0.4671678,2.423092 -0.901532,4.6844 -1.2305492,6.393104 -0.1287549,0.661367 -0.2257449,1.152902 -0.3184659,1.626768 -0.8833637,0.138742 -1.8205425,0.275544 -2.8118727,0.398349 -0.5053408,0.06362 -1.0252838,0.123696 -1.5578912,0.178229 -0.2672125,0.02727 -0.5361024,0.05262 -0.8087684,0.07988 -0.1872306,0.01818 -0.3747462,0.0365 -0.5637946,0.05467 -0.1145199,0.01091 -0.2305739,0.02176 -0.3450935,0.03266 l -0.1746769,0.01632 -0.087338,0.0089 -0.043669,0.0039 c -0.010907,0.0036 -0.021757,0.0088 -0.032663,0.01243 0.014542,0.325382 0.032671,0.718079 0.00178,1.012559 -0.018178,0.199955 -0.037861,0.414636 -0.043314,0.643678 -0.00364,0.112702 -0.00376,0.232447 0.00533,0.357874 0.00727,0.06544 0.00716,0.123665 0.019882,0.194558 0.012724,0.07271 0.014586,0.127415 0.043669,0.220122 0.032765,0.122065 0.088135,0.238699 0.1537299,0.348998 -0.3240171,0.521441 -0.65410933,1.295522 -0.89610692,2.380861 -0.0126735,0.0059 -0.0251767,0.0097 -0.0386988,0.0092 -6.1805e-4,-1.32e-4 -0.003773,-0.0018 -0.00426,-0.0018 -0.44353642,0.843445 -0.54886875,3.593889 -0.44343801,5.280782 0.04544437,0.743468 0.08175848,3.944489 0.68344129,4.502547 0.009905,0.0092 0.0195723,0.01712 0.0294678,0.02627 0.001491,0.0084 0.003837,0.01789 0.005326,0.02627 0.1118942,0.630442 0.24162069,1.288419 0.39053784,1.975058 0.01626,0.075 0.032981,0.15047 0.049705,0.226156 0.1513008,0.684503 0.3214149,1.397245 0.5123147,2.138726 0.022387,0.08698 0.045566,0.174594 0.068522,0.262371 0.020518,0.07843 0.043285,0.160218 0.064261,0.239293 -0.00837,-0.0054 -0.025632,-0.01556 -0.029468,-0.01882 l 0.00178,0.0018 c 0.312657,1.297889 0.9816008,4.213746 1.7268875,5.508004 0.2322759,0.403989 1.230216,1.034892 2.3876065,1.645938 0.8711535,0.47954 1.8178256,0.9164 2.6240595,1.237298 0.7020827,0.29122 1.2750191,0.490711 1.5493699,0.528999 0.01038,0.007 0.01237,0.0095 -0.0078,0.0032 0.870608,0.263482 3.317308,1.027215 6.55287,1.630672 -0.02515,0.01623 -0.04774,0.03331 -0.07243,0.04971 a 3.1847441,5.5751198 0 0 0 -2.34964,1.896274 c -1.91122,0.248056 -3.173464,2.157459 -3.436378,5.397944 -4.9e-5,5.45e-4 5.1e-5,0.0015 0,0.0021 -2e-6,3.63e-4 4e-6,7.27e-4 0,0.0011 l -0.0018,-0.0011 c 0,0 -3.64e-4,0.03032 -3.64e-4,0.03124 -5.45e-4,0.0078 -0.0011,0.01512 -0.0018,0.02343 l 3.63e-4,3.63e-4 c -0.03332,0.423033 -0.05373,0.857699 -0.06355,1.296584 l -0.05858,-0.0064 c 0.01844,0.02296 0.03754,0.04505 0.05645,0.06746 -0.0078,0.385736 -0.0058,0.773412 7.09e-4,1.158833 l -0.02805,-0.0035 c 0.0094,0.01169 0.01926,0.02289 0.02876,0.03444 0.01452,0.81843 0.05505,1.623738 0.10935,2.360624 0.03351,0.701216 0.08435,1.330153 0.160121,1.762391 0.03716,0.346844 0.07158,0.631487 0.103315,0.882971 5.45e-4,0.0038 5.27e-4,0.0044 0.0011,0.0082 0.06087,0.481621 0.106511,0.785337 0.106511,0.785337 v 0.0018 c 0.01174,0.01572 0.02462,0.02968 0.03657,0.04509 0.02078,0.0268 0.04147,0.05332 0.06284,0.07917 -5.45e-4,-1.82e-4 -8.72e-4,-5.46e-4 -0.0014,-7.28e-4 -1.037949,0.76528 -1.5923852,2.135889 -1.3778878,3.408331 0.2144968,1.272439 1.2616678,2.039562 2.4941168,2.42311 h 0.0018 l 0.0053,-0.01385 c 0.242528,-0.02876 0.483179,-0.04368 0.723205,-0.05468 0.02056,0.120313 0.05709,0.217622 0.115032,0.242844 0.185831,0.08089 0.959561,0.274947 1.882747,0.144498 a 3.3305296,3.3305296 0 0 0 0.01669,0.113967 2.1813315,2.1813315 0 0 0 0.08272,0.314915 c -0.0175,0.100554 -0.03488,0.20923 -0.05184,0.327343 l -0.118936,0.133138 c -0.02261,0.0175 -0.04544,0.03505 -0.06746,0.05432 a 0.40681833,0.40681833 0 0 0 -0.121066,0.156571 l -0.129588,0.144853 -0.01811,-0.0071 a 0.60786439,0.60786439 0 0 0 0.02095,-3.63e-4 c 0.0025,-0.03963 -0.04021,-0.08804 -0.112191,-0.141305 l -0.143079,-0.106154 0.01314,0.228287 a 1.6803524,1.6803524 0 0 0 0.216571,0.641901 c 0.06562,0.121595 0.140814,0.234949 0.210535,0.335861 a 1.3269767,1.3269767 0 0 0 -0.01633,0.188169 5.5289484,5.5289484 0 0 0 -0.130297,1.879552 c 0.03128,0.375043 0.07889,0.72952 0.128877,1.072205 -0.0068,0.226975 -0.01364,0.445029 -0.02379,0.620245 -0.01818,0.365374 -0.03696,0.736618 -0.05574,1.113743 -0.0021,0.06558 -0.0054,0.131176 -0.0085,0.19669 l -0.0018,0.005 a 3.230552,3.230552 0 0 0 -0.189944,0.592551 1.4091402,1.4091402 0 0 0 -0.03018,0.361428 0.90216237,0.90216237 0 0 0 0.03408,0.201304 0.6556719,0.6556719 0 0 0 0.04047,0.103669 c 0.0027,0.01272 0.01985,0.04006 0.03621,0.01988 a 0.26721311,0.26721311 0 0 1 0.08947,-0.05325 c 0.008,-0.0033 0.01667,-0.0051 0.02485,-0.0078 0.0042,0 -0.0093,0.01318 -0.01314,0.01917 -0.01254,0.01472 -0.02334,0.03071 -0.03479,0.0458 a 0.59041374,0.59041374 0 0 0 -0.09089,0.19385 1.8177764,1.8177764 0 0 0 -0.03444,0.366039 c 0,0.05562 3.45e-4,0.110557 0.0011,0.165091 a 1.3300669,1.3300669 0 0 0 0.0142,0.180003 1.1270213,1.1270213 0 0 0 0.106156,0.353614 0.46934985,0.46934985 0 0 0 0.171481,0.191362 l 0.03018,0.01703 a 0.04871641,0.04871641 0 0 0 0.01101,0.0046 0.03871863,0.03871863 0 0 0 0.0174,0.0032 c 0.01145,0.0013 0.02247,0 0.03337,0 a 0.10670347,0.10670347 0 0 0 0.08272,-0.0181 c 0.0087,-0.0085 0.0016,0.01016 0.0021,0.01561 l -0.0036,0.02414 -0.0067,0.04545 -0.0142,0.112191 a 0.76601093,0.76601093 0 0 0 -0.0025,0.151955 c 0.0076,0.155965 0.02431,0.305661 0.04012,0.450537 a 1.5045734,1.5045734 0 0 0 0.123907,0.539298 0.73529052,0.73529052 0 0 0 0.123908,0.175031 0.66676034,0.66676034 0 0 0 0.09089,0.07953 l 0.04935,0.03266 a 0.07271105,0.07271105 0 0 1 0.01278,0.0085 0.09906881,0.09906881 0 0 0 0.0568,0.02734 l 0.01385,0.0035 a 0.08961637,0.08961637 0 0 1 -0.0021,0.01776 l -0.006,0.03479 -0.01207,0.06284 a 0.40700011,0.40700011 0 0 0 -0.0032,0.04261 l -0.0032,0.06177 -0.0028,0.12817 a 2.4941708,2.4941708 0 0 0 0.01207,0.26876 c 0.0091,0.0898 0.0218,0.1789 0.03834,0.26379 0.01654,0.08489 0.03217,0.164739 0.06071,0.263081 a 1.36515,1.36515 0 0 0 0.05467,0.154085 1.080668,1.080668 0 0 0 0.09941,0.184617 0.8532642,0.8532642 0 0 0 0.30462,0.279058 c 0.02927,0.01545 0.05748,0.02984 0.08911,0.04438 0.03163,0.01454 0.05222,0.02335 0.0813,0.03444 0.02908,0.01109 0.05853,0.02056 0.09089,0.02947 l 0.02414,0.0067 c 0.0062,0.0018 -0.0013,0 0.0011,0 l 0.0039,0.0015 a 0.09088882,0.09088882 0 0 0 0.02876,0.005 c 0.0082,0.0087 0.0036,0.03397 0.0078,0.04651 l 0.07846,0.180356 c 0.03545,0.06508 0.07155,0.130947 0.108995,0.194205 a 2.7606568,2.7606568 0 0 0 0.55918,0.624506 4.7807516,4.7807516 0 0 0 1.309011,0.750542 6.7832141,6.7832141 0 0 0 3.023118,0.433498 5.167938,5.167938 0 0 0 1.479784,-0.34048 3.6537303,3.6537303 0 0 0 1.273864,-0.823679 3.0965819,3.0965819 0 0 0 0.748767,-1.253272 3.706264,3.706264 0 0 0 0.146274,-1.307591 5.8485135,5.8485135 0 0 0 -0.309234,-1.455995 c 0.0021,-0.04033 0.0063,-0.07984 0.0064,-0.121068 a 4.9908866,4.9908866 0 0 0 -0.0142,-0.488883 1.0521289,1.0521289 0 0 0 0.358229,0.238585 1.2010048,1.2010048 0 0 0 0.169351,0.05432 0.43226721,0.43226721 0 0 0 0.04899,0.01527 0.23740158,0.23740158 0 0 0 0.08201,0.0057 0.48825472,0.48825472 0 0 0 -0.01703,0.08912 0.36937214,0.36937214 0 0 0 -0.0011,0.03941 c 0,0.0062 0.0037,0.02159 0.0053,0.03195 0.0016,0.01036 0.01474,0.05006 0.02201,0.07278 a 1.2471763,1.2471763 0 0 0 0.402612,0.577641 1.2753518,1.2753518 0 0 0 0.675274,0.266631 c 0.03017,0.0031 0.05877,0.0037 0.0884,0.0053 a 0.08489015,0.08489015 0 0 1 0.0213,0.0021 0.17014386,0.17014386 0 0 0 0.02059,0.0018 0.10234081,0.10234081 0 0 0 0.03266,-0.0035 0.27448421,0.27448421 0 0 0 -0.0028,0.04118 l 0.0018,0.01846 0.0015,0.0082 v 0.0039 l 0.01598,0.03657 a 1.360242,1.360242 0 0 0 1.105578,0.769715 1.4916672,1.4916672 0 0 0 0.173257,0.0064 l 0.07278,-0.0035 0.01243,0.0018 c 0.0024,0.006 0.0032,0.01411 0.0046,0.01811 0.0027,0.0035 -0.01072,-0.01043 0,0.0015 l 0.03337,0.03976 a 0.74528828,0.74528828 0 0 0 0.06923,0.07562 1.6723542,1.6723542 0 0 0 0.14521,0.134203 c 0.840718,0.652217 1.803417,0.589266 2.544886,0.555274 a 5.6611008,5.6611008 0 0 0 1.188301,-0.197754 4.1605264,4.1605264 0 0 0 1.090664,-0.494918 3.2703613,3.2703613 0 0 0 1.369368,-1.711621 2.8902643,2.8902643 0 0 0 0.140949,-0.966405 3.0313238,3.0313238 0 0 0 -0.151955,-0.83504 2.2449538,2.2449538 0 0 0 -0.04402,-0.615273 3.8064236,3.8064236 0 0 0 -0.326633,-1.401677 c -0.05021,-0.117584 -0.119493,-0.247081 -0.173299,-0.345604 l -0.162251,-0.28687 C 33.804712,90.241978 33.689636,90.050332 33.5673,89.860556 33.444964,89.67078 33.315698,89.482893 33.174275,89.297117 c -0.07035,-0.09252 -0.145344,-0.18461 -0.222963,-0.275862 l -0.105443,-0.117517 h -0.0028 a 0.04035463,0.04035463 0 0 1 -0.0082,-0.0025 l -0.0018,-0.0067 v -0.0028 c 0,-0.0016 -0.0038,0.0071 0.0057,-0.0142 l 0.0774,-0.175741 0.145566,-0.345095 c 0.09198,-0.229525 0.183317,-0.457656 0.274087,-0.684151 0.157936,-0.406914 0.307281,-0.809271 0.450183,-1.208184 0.07399,-0.06081 0.147847,-0.121376 0.219767,-0.184262 l 0.165801,-0.148759 a 2.0022807,2.0022807 0 0 0 0.242842,-0.256334 1.0292249,1.0292249 0 0 0 0.155505,-1.050901 2.105712,2.105712 0 0 0 0.365686,-0.195981 c 0.162327,-0.109067 0.293143,-0.203893 0.442019,-0.313141 0.144331,-0.107249 0.287874,-0.220254 0.426752,-0.343318 a 2.9213482,2.9213482 0 0 0 0.709003,-0.897526 3.2054667,3.2054667 0 0 0 0.27444,-1.048772 c 0.02587,-0.250455 0.03789,-0.482572 0.04935,-0.710779 0.51599,0.145391 1.352798,0.1716 2.21009,-0.340833 0.09579,-0.0573 0.168589,-0.134042 0.256335,-0.198464 -0.0592,0.324102 -0.111169,0.629886 -0.172547,0.959657 -0.05453,0.287209 -0.107365,0.578238 -0.161898,0.8709 -0.01454,0.07089 -0.0289,0.14538 -0.03799,0.228999 a 1.5560165,1.5560165 0 0 0 -0.02201,0.243553 1.3833278,1.3833278 0 0 0 0,0.245329 1.4124122,1.4124122 0 0 0 0.02911,0.247103 2.4394558,2.4394558 0 0 0 1.090666,1.647005 2.2249582,2.2249582 0 0 0 0.57622,0.256335 6.8911899,6.8911899 0 0 0 0.743444,0.128877 c 0.523516,0.07271 1.125132,0.14927 1.744995,0.218346 0.955411,0.109915 1.953281,0.205474 2.779563,0.259531 l 0.662139,0.108995 c 0.08897,0.01467 0.177065,0.02211 0.264857,0.02592 a 2.1813315,2.1813315 0 0 0 0.270892,0.01385 0.41990632,0.41990632 0 0 0 0.0035,0.04793 c 0,0 0.01569,-3.64e-4 0.01776,-3.64e-4 a 4.5244452,4.5244452 0 0 0 0.04189,0.0039 0.49625293,0.49625293 0 0 0 3.64e-4,0.0018 0.44899075,0.44899075 0 0 1 0,-0.0018 4.5244452,4.5244452 0 0 0 0.470774,0.02734 4.1627077,4.1627077 0 0 0 0.716103,-0.05645 3.4537749,3.4537749 0 0 0 1.292682,-0.459768 2.1395227,2.1395227 0 0 0 0.307104,-0.228998 c 0.04908,-0.04181 0.09089,-0.09653 0.136333,-0.143788 l 0.0671,-0.07456 0.0529,-0.08698 a 1.9268428,1.9268428 0 0 0 0.10722,-0.181777 1.828683,1.828683 0 0 0 0.06533,-0.200239 3.7500725,3.7500725 0 0 0 0.08024,-0.406871 c 0.0091,-0.06908 0.02521,-0.138221 0.02521,-0.209115 v -0.116452 a 0.23085759,0.23085759 0 0 0 -0.02698,-0.136333 0.7125683,0.7125683 0 0 0 -0.114676,-0.07811 l -0.09444,-0.05468 -0.1058,-0.0568 c 0.0071,-0.02747 0.01487,-0.05372 0.02201,-0.0813 0.110884,-0.421724 0.214583,-0.861583 0.31456,-1.319664 a 26.190521,26.190521 0 0 0 0.458707,-2.733764 c 0.203263,-0.250704 0.400564,-0.499168 0.586515,-0.741669 0.101796,-0.134511 0.252727,-0.31835 0.42178,-0.520123 l 0.164382,-0.196334 a 1.0052303,1.0052303 0 0 0 0.08095,0.05112 0.82527043,0.82527043 0 0 0 0.579772,0.107219 l 0.08734,-0.02911 c 0.02363,-0.01091 0.03823,-0.02176 0.05823,-0.03266 l 0.105443,-0.06746 c 0.06908,-0.04726 0.13453,-0.09608 0.196334,-0.146983 a 1.8759452,1.8759452 0 0 0 0.06639,-0.06142 0.69439054,0.69439054 0 0 0 0.32805,0.02308 0.5835062,0.5835062 0 0 0 0.283673,-0.170771 0.76891936,0.76891936 0 0 0 0.09444,-0.123552 1.3833278,1.3833278 0 0 0 0.06355,-0.127457 0.77800826,0.77800826 0 0 0 0.04722,-0.350774 1.486941,1.486941 0 0 0 -0.09976,-0.425332 1.592372,1.592372 0 0 0 -0.352548,-0.539652 1.6050964,0.70893277 64.92 0 0 -0.06213,-0.151244 2.7266644,2.7266644 0 0 0 -0.121776,-0.397995 1.9232073,1.9232073 0 0 0 -0.272666,-0.503438 1.6359987,1.6359987 0 0 0 -0.396219,-0.376337 0.90888815,0.90888815 0 0 0 -0.288997,-0.125327 0.49988848,0.49988848 0 0 0 -0.305688,0.02272 C 52.085229,74.667124 51.996809,74.534897 51.909767,74.403783 51.617105,73.971152 51.324656,73.549541 51.037448,73.1569 50.741936,72.750906 50.16226,71.839148 49.822518,71.362911 a 0.61335585,1.392336 2.8624052 0 0 0.06426,-0.379531 l 0.05432,0.01207 0.06177,0.01278 h 0.05645 a 0.62713282,0.62713282 0 0 0 0.08876,-0.0046 4.6535072,4.6535072 0 0 0 0.07669,0.222606 1.9141184,1.9141184 0 0 0 0.425332,0.630897 1.0906658,1.0906658 0 0 0 0.165447,0.120002 1.0252258,1.0252258 0 0 0 0.227222,0.09266 c 0.03635,-0.01818 0.07623,-0.03645 0.110769,-0.05645 l 0.09479,-0.05077 0.163316,-0.09266 c 0.107854,-0.0618 0.215375,-0.127257 0.322017,-0.196333 l 0.216215,-0.143789 a 0.55987509,0.55987509 0 0 0 0.105445,-0.09799 l 0.161895,-0.118228 c 0.08725,-0.06544 0.17627,-0.127217 0.259887,-0.19811 a 10.268618,10.268618 0 0 0 1.884878,-1.948784 9.1179659,9.1179659 0 0 0 0.754447,-1.226643 c 0.04766,0.0011 0.09511,0.0015 0.14166,0.0015 a 3.0774952,3.0774952 0 0 0 0.196334,-0.0071 0.92524814,0.92524814 0 0 0 0.323791,0.247105 0.7361994,0.7361994 0 0 0 0.419651,0.02201 1.1197502,1.1197502 0 0 0 0.191008,-0.06355 c 0.05453,-0.0309 0.112773,-0.06026 0.163671,-0.09479 a 1.2469945,1.2469945 0 0 0 0.326987,-0.35255 2.3322069,2.3322069 0 0 0 0.249233,-0.558115 2.6303223,2.6303223 0 0 0 0.109352,-0.892555 1.0288613,2.3303892 9.83 0 0 0.06781,-0.313851 4.0500055,4.0500055 0 0 0 0.1445,-0.502375 3.0756775,3.0756775 0 0 0 0.06533,-0.817998 2.3740158,2.3740158 0 0 0 -0.16154,-0.756222 1.2397234,1.2397234 0 0 0 -0.225448,-0.372433 0.67075945,0.67075945 0 0 0 -0.436337,-0.232548 0.73801718,0.73801718 0 0 0 -0.153018,0.0085 l -0.06675,-0.01065 -0.291128,-0.05254 -0.03799,-0.0082 a 7.0893275,7.0893275 0 0 0 -1.283447,-3.5965 5.9550351,5.9550351 0 0 0 -0.40474,-0.498468 c -0.139974,-0.195245 -0.288614,-0.382749 -0.445924,-0.561309 a 6.9457231,6.9457231 0 0 0 -0.03444,-0.03621 l 0.03444,-0.0075 a 0.80345712,0.80345712 0 0 0 -0.02166,0.0015 l -0.01561,0.0032 a 6.9457231,6.9457231 0 0 0 -0.0021,-0.0021 0.80345712,0.80345712 0 0 1 0.01776,-0.0011 l 0.02343,-0.005 a 0.8670793,0.8670793 0 0 0 -0.05041,-0.0039 6.9457231,6.9457231 0 0 0 -0.10438,-0.110061 5.7259953,5.7259953 0 0 0 -0.274086,-0.298584 c -0.0509,-0.05453 -0.107278,-0.111182 -0.165447,-0.169351 l -0.09266,-0.08698 c -0.03454,-0.02727 -0.06902,-0.08024 -0.123553,-0.08024 a 0.81981711,0.81981711 0 0 0 -0.594683,0.09302 2.7757445,2.7757445 0 0 0 -0.88155,0.892203 6.9275454,6.9275454 0 0 0 -0.167222,0.279056 c -0.009,-0.0016 -0.01864,-0.003 -0.02769,-0.0046 a 16.932586,16.932586 0 0 0 -1.755645,-0.41965 c -0.127017,-0.02213 -0.256406,-0.04319 -0.387342,-0.0639 a 1.0306792,1.0306792 0 0 0 0.08201,-0.128879 c 0.219402,-0.400519 0.295894,-0.913186 0.257044,-1.464517 a 6.6585146,6.6585146 0 0 0 0.66285,-0.246039 2.1104383,2.1104383 0 0 0 0.754449,-0.530778 0.51806624,0.51806624 0 0 0 0.123551,-0.285447 0.22540426,0.22540426 0 0 0 0,-0.09621 0.21813315,0.21813315 0 0 0 -0.01456,-0.04544 0.42899521,0.42899521 0 0 1 7.27e-4,0.02485 c -0.0015,-0.0083 -0.0022,-0.01658 -0.0043,-0.02485 -0.01187,-0.04913 -0.04013,-0.09409 -0.08166,-0.134557 a 0.59804839,0.59804839 0 0 1 0.1271,0.132783 0.42717742,0.42717742 0 0 0 -0.181777,-0.234679 1.0106836,1.0106836 0 0 0 -0.25456,-0.127102 2.3103936,2.3103936 0 0 0 -0.581902,-0.118226 3.4101483,3.4101483 0 0 0 -0.650778,0.011 l -0.08521,0.01102 -0.105444,0.0181 c -0.02635,0.0046 -0.05222,0.01034 -0.07775,0.01632 a 4.273592,4.273592 0 0 0 -0.540361,-1.07256 1.0106836,1.0106836 0 0 0 -0.428884,-0.270892 1.5760121,1.5760121 0 0 0 0.08166,-0.539652 1.4433144,1.4433144 0 0 0 -0.276216,-0.83646 1.8050519,1.8050519 0 0 0 -1.370077,-0.678471 1.8050519,1.8050519 0 0 0 -0.447699,0.04615 1.0143192,1.0143192 0 0 0 -0.354325,0.165445 1.2724434,1.2724434 0 0 0 -0.363554,0.394444 1.1488346,1.1488346 0 0 0 -0.153021,0.517995 0.95615033,0.95615033 0 0 0 0.02272,0.220832 c -0.01127,0.07056 -0.01703,0.143782 -0.01703,0.219056 a 1.4233188,1.4233188 0 0 0 0.0082,0.0742 1.2924389,1.2924389 0 0 0 0.315271,1.010784 1.4687632,1.4687632 0 0 0 1.218123,0.465449 1.552381,1.552381 0 0 0 1.150666,-0.689831 2.1577004,2.1577004 0 0 1 0.346868,0.353613 4.4371919,4.4371919 0 0 1 0.401901,0.696577 5.4896844,5.4896844 0 0 0 -0.812674,0.30675 3.3174417,3.3174417 0 0 0 -0.416102,0.227221 1.6650831,1.6650831 0 0 0 -0.383436,0.314563 0.62349727,0.62349727 0 0 0 -0.15302,0.259885 0.36355526,0.36355526 0 0 0 0,0.167221 0.87253262,0.87253262 0 0 0 0.04544,0.132783 0.68711944,0.68711944 0 0 0 0.392669,0.348998 1.9668339,1.9668339 0 0 0 0.908887,0.06178 6.6585146,6.6585146 0 0 0 0.855988,-0.167223 4.5789785,4.5789785 0 0 1 -0.0071,0.792437 2.0958961,2.0958961 0 0 1 -0.20805,0.668887 c -0.38597,-0.05848 -0.787136,-0.113729 -1.207828,-0.170773 l -0.998001,-0.139883 -0.259884,-0.03834 -0.131011,-0.01988 a 0.7507416,0.7507416 0 0 1 -0.100474,-0.02237 2.5030779,2.5030779 0 0 0 -0.0046,-0.04651 c -1.31e-4,-0.01014 -3.63e-4,-0.02116 -7.27e-4,-0.03302 l 0.01669,0.0039 -0.01669,-0.0067 c -0.0021,-0.06931 -0.0077,-0.155927 -0.02876,-0.275151 a 2.3285714,2.3285714 0 0 0 -0.0021,-0.01598 2.5030779,2.5030779 0 0 0 -3.63e-4,-7.27e-4 2.3285714,2.3285714 0 0 0 -0.03373,-0.243199 0.87798595,0.87798595 0 0 0 -0.04722,-0.149113 c -0.02363,-0.04908 -0.0508,-0.09644 -0.07988,-0.14734 a 1.1470168,1.1470168 0 0 0 -0.236452,-0.290773 0.50352403,0.50352403 0 0 0 -0.192784,-0.10367 c -0.07453,-0.01636 -0.134415,-0.02531 -0.216215,-0.03621 a 1.3724211,1.3724211 0 0 0 -0.0671,0.01207 3.4537749,3.4537749 0 0 0 -1.821682,0.336926 5.7968885,5.7968885 0 0 0 -1.841208,1.361559 7.8855135,7.8855135 0 0 0 -1.288066,2.011623 c -0.143195,-0.02991 -0.283953,-0.06433 -0.438822,-0.104734 a 0.60895506,0.60895506 0 0 0 -0.363554,0.03444 1.0543102,1.0543102 0 0 0 -0.29823,0.19456 2.2067805,2.2067805 0 0 0 -0.42533,0.545333 5.0606893,5.0606893 0 0 0 -0.512671,1.339545 4.5789785,4.5789785 0 0 0 -0.09799,1.574222 1.7032564,1.7032564 0 0 0 0.152666,0.488883 1.454221,1.454221 0 0 0 0.465096,0.578351 0.84163042,0.84163042 0 0 0 0.390892,0.1271 3.2556373,3.2556373 0 0 0 0.347225,0.01988 2.3958292,2.3958292 0 0 0 0.05503,-0.0021 14.433144,14.433144 0 0 0 0.0742,1.029246 c 0.129062,1.047035 0.399913,2.094249 0.908888,2.946785 a 4.7462139,4.7462139 0 0 0 0.663204,0.879776 3.2719973,3.2719973 0 0 0 1.105221,0.759773 2.69758,2.69758 0 0 0 0.936227,0.201659 0.6598528,0.6598528 0 0 0 0.134559,0.03834 0.93615479,0.93615479 0 0 0 0.214439,0 1.3378833,1.3378833 0 0 0 0.398349,-0.125681 1.0361325,1.0361325 0 0 0 0.334441,-0.266986 1.137928,1.137928 0 0 0 0.203438,-0.378111 c 0.01091,-0.03454 0.01825,-0.06909 0.02734,-0.105446 0.0091,-0.03636 0.01074,-0.07092 0.02166,-0.120002 l 0.0099,-0.05574 1.182619,0.181068 c 0.45673,0.07247 0.934205,0.151059 1.43363,0.242842 a 3.7064458,3.7064458 0 0 0 0.0025,0.940488 0.84526597,0.84526597 0 0 0 0.130652,0.305684 0.72711051,0.72711051 0 0 0 0.421782,0.323437 l 0.08379,0.01278 h 0.05823 l 0.11077,-0.01278 c 0.07089,-0.01091 0.141857,-0.02554 0.209115,-0.04189 a 1.5014832,1.5014832 0 0 0 0.03906,-0.01243 0.63622169,0.63622169 0 0 0 0.248168,0.15799 0.54533289,0.54533289 0 0 0 0.123907,0.01314 c 0.257701,0.440882 0.547403,0.917578 0.868413,1.422978 0.261759,0.414453 0.543445,0.843235 0.836107,1.281318 l 0.44912,0.661787 0.01385,0.02023 a 0.81072823,0.81072823 0 0 0 -0.0085,0.02876 1.6978031,1.6978031 0 0 0 -0.02166,0.488881 4.1154456,4.1154456 0 0 0 0.323791,1.181556 c -0.216626,0.199226 -0.4487,0.419277 -0.689831,0.653973 a 1.9123007,1.9123007 0 0 0 -0.05929,-0.128524 2.0359095,2.0359095 0 0 0 -0.647229,-0.634445 3.4792238,3.4792238 0 0 0 -0.407223,-0.214443 l -0.210891,-0.09266 c -0.07271,-0.02908 -0.145237,-0.05088 -0.219766,-0.07633 -1.177919,-0.387186 -2.475885,-0.523577 -3.844667,-0.694448 a 8.7798595,8.7798595 0 0 0 -1.694226,0.04722 12.228181,12.228181 0 0 0 -1.388895,0.225091 2.4830824,2.4830824 0 0 0 -0.254204,-0.01953 2.3140292,2.3140292 0 0 0 -1.412328,0.523675 c -0.127004,-0.321223 -0.302743,-0.607435 -0.558113,-0.803442 -0.0011,-9.09e-4 -0.0024,-0.0016 -0.0035,-0.0025 7.27e-4,-0.0063 0.0011,-0.01285 0.0018,-0.01917 0.01501,-0.146649 0.02689,-0.294805 0.03692,-0.443792 0.0051,-0.07352 0.0098,-0.146901 0.01385,-0.22083 0.0031,-0.06059 0.0054,-0.121337 0.0078,-0.182136 0.0532,-1.253975 -0.03937,-2.544297 -0.176452,-3.599692 -0.178974,-1.369206 -0.478849,-2.5389 -0.822259,-3.577327 0.0011,-5.45e-4 0.0023,-9.09e-4 0.0035,-0.0015 8.3e-5,3.63e-4 1.81e-4,7.27e-4 3.63e-4,0.0011 v -0.0018 l -3.63e-4,3.63e-4 c -0.294325,-0.891773 -0.623034,-1.68577 -0.937292,-2.41601 -0.870712,-2.017727 -1.55048,-2.773784 -2.366659,-3.080987 -0.177897,-0.06668 -0.346137,-0.106015 -0.505214,-0.128523 a 5.5751198,3.1847441 86.01 0 0 -0.850308,-0.97599 c 0.220842,-0.08543 0.438347,-0.172585 0.653617,-0.260951 0.02503,-0.0102 0.05033,-0.02026 0.07527,-0.03053 0.01051,-0.0043 0.02145,-0.0084 0.03195,-0.01278 7.1e-5,-3.63e-4 3.64e-4,-7.27e-4 3.64e-4,-0.0011 0.004,-0.0016 0.0077,-0.0037 0.01172,-0.0053 2.999388,-0.902118 5.759604,-3.000888 7.044595,-4.581718 1.14156,-1.64145 1.746883,-4.202716 1.817776,-5.604219 -0.03141,0.06584 -0.108118,0.205989 -0.161186,0.309235 1.063244,-5.111268 0.65712,-11.410973 -0.88155,-14.99417 0.14351,-0.03555 0.228702,-0.05476 0.375625,-0.0916 0.205409,-0.0509 0.414397,-0.101723 0.623441,-0.154439 l 0.16722,-0.04189 0.02201,-0.0075 h 0.011 v -0.01065 l 0.0035,-0.04367 0.0053,-0.08734 0.02379,-0.348998 0.07065,-1.092441 c 0.02181,-0.345375 0.04564,-0.690656 0.06746,-1.034217 l 0.03799,-0.583675 0.02201,-0.332667 0.011,-0.163671 0.0053,-0.08166 0.0035,-0.04012 v -0.01988 c -0.0018,-0.0036 -0.01265,-0.0035 -0.0181,-0.0035 -0.745288,-0.05817 -1.46348,-0.114506 -2.128787,-0.167221 -0.59441,-0.04908 -1.139717,-0.105502 -1.606885,-0.163671 -0.586607,-0.07418 -1.034174,-0.141824 -1.333863,-0.177518 l -0.03657,-0.124261 C 39.256823,31.095653 39.153038,30.750105 39.049426,30.40291 38.965807,30.119337 38.882387,29.834088 38.79877,29.548697 38.464299,28.405319 38.140623,27.250883 37.818876,26.085692 36.531894,21.428559 35.263011,16.633444 33.88332,11.83816 33.285272,9.7622634 32.659883,7.6480534 31.992762,5.5267129 31.823709,4.9977411 31.654868,4.4669482 31.483998,3.9361587 L 31.433227,3.7490555 C 31.415048,3.6781621 31.396543,3.6054652 31.371094,3.5363899 31.325651,3.3946037 31.278375,3.2544922 31.220206,3.1181593 31.111139,2.8418577 30.973299,2.5784356 30.813337,2.3239472 30.65519,2.0694591 30.462448,1.834894 30.255222,1.6149435 30.038691,1.4056324 29.807484,1.2035018 29.545725,1.0453556 29.037642,0.72039958 28.447858,0.54056091 27.858955,0.4765904 26.003009,0.16938681 24.12318,0.00558751 22.249056,1.3418819e-4 Z M 7.6621118,31.011326 c -0.00587,0.02998 -0.014542,0.07419 -0.020237,0.103315 -0.1494007,0.02249 -0.2986507,0.04894 -0.4480532,0.07669 0.1540845,-0.06014 0.3269536,-0.120493 0.4682903,-0.180002 z M 50.02482,55.829653 h 0.259884 0.0529 0.01243 c 0.01636,0.0036 0.0091,0.0181 0,0.0181 l -0.04367,0.01988 -0.06355,0.02556 a 5.4715067,5.4715067 0 0 1 -0.545332,0.181778 12.080941,12.080941 0 0 1 -0.101894,0.02592 6.8766477,6.8766477 0 0 0 -0.05787,-0.230772 l 0.03089,-0.0043 0.06888,-0.0089 0.127457,-0.01278 c 0.07816,-0.01454 0.181721,-0.01456 0.259886,-0.01456 z m -0.847823,0.123196 a 4.4371919,4.4371919 0 0 1 0.01172,0.03479 4.5789785,4.5789785 0 0 1 0.05858,0.201306 12.080941,12.080941 0 0 1 -0.747704,0.156925 c -0.09998,0.01636 -0.201844,0.03834 -0.300003,0.03834 h -0.03444 l 0.129231,-0.06923 a 5.9404929,5.9404929 0 0 1 0.577998,-0.247105 l 0.152666,-0.05468 a 0.77437271,0.77437271 0 0 0 0.134557,-0.05077 z m -4.553316,11.565602 5.077703,0.777527 h 0.0021 a 17.87783,17.87783 0 0 0 0,0.0018 h -0.0021 L 44.622971,67.524131 Z M 13.78681,80.924552 c 0.246498,0.31152 0.470349,0.893684 0.332313,1.413391 -0.200294,-0.323493 -0.301803,-0.68772 -0.329827,-1.066877 -0.0081,-0.106315 -0.0022,-0.226573 -0.0025,-0.346514 z m 10.117417,8.138455 a 6.8822828,6.8822828 0 0 0 0.06249,0.0015 16.119677,16.119677 0 0 0 0.06249,0.0071 c 0.05799,0.0031 0.115692,5.45e-4 0.173612,0.0021 a 9.9554154,9.9554154 0 0 0 0.01456,0.166512 l 0.01314,0.113254 a 1.2708074,1.2708074 0 0 0 0.03621,0.147694 c 0.0233,0.08605 0.04702,0.172627 0.07065,0.259177 a 9.4273515,9.4273515 0 0 0 -0.0845,1.178714 1.5574707,1.5574707 0 0 0 -0.141659,0.331248 3.5650229,3.5650229 0 0 0 -0.06817,0.301423 c -0.02168,-0.03877 -0.04207,-0.07947 -0.06426,-0.117516 -0.03636,-0.06417 -0.07349,-0.127446 -0.111481,-0.188523 l -0.0284,-0.04651 -0.0142,-0.02308 a 0.02781198,0.02781198 0 0 1 -0.0035,-0.0039 l -0.02024,-0.02308 -0.02023,-0.0245 -0.0025,-0.03053 a 0.56696443,0.56696443 0 0 1 0,-0.115741 l 0.01385,-0.406869 a 10.475118,10.475118 0 0 1 0.09089,-1.448187 3.1867437,3.1867437 0 0 1 0.0213,-0.08024 z" />
</svg>
