<svg id="root" viewBox="0 0 50 50"
   xmlns="http://www.w3.org/2000/svg">
   <path fill="currentColor" d="m 23.278974,0 c -0.936159,-0.00272667 -1.873733,0.07809917 -2.775352,0.30077708 l -0.167966,0.0410151 -0.167967,0.0507805 -0.166013,0.0488274 c -0.0554,0.0181778 -0.116423,0.0379591 -0.171873,0.0624991 -0.227219,0.0927067 -0.43555,0.2542072 -0.58007,0.45507181 -0.14542,0.20086461 -0.23274,0.42443561 -0.30273,0.64256921 -0.0691,0.2208601 -0.120748,0.4330217 -0.181638,0.6484285 -0.12088,0.4280871 -0.227906,0.8576896 -0.337886,1.2812323 -0.10179,0.4253597 -0.206124,0.8455646 -0.298824,1.2636543 -0.17633,0.7598316 -0.408489,1.8251698 -0.648429,3.0058177 -0.239949,1.1806471 -0.48788,2.474989 -0.71874,3.687449 -0.233589,1.211549 -0.450716,2.342865 -0.615225,3.197221 -0.0644,0.33068 -0.113794,0.575555 -0.160154,0.812489 -0.44169,0.06937 -0.908618,0.137814 -1.404278,0.199216 -0.25267,0.03181 -0.512986,0.06258 -0.779286,0.08984 -0.13361,0.01363 -0.267951,0.02543 -0.404291,0.03906 -0.0936,0.0091 -0.188669,0.01825 -0.283199,0.02734 -0.0573,0.0055 -0.114613,0.01213 -0.171873,0.01758 l -0.08789,0.0078 -0.04297,0.0039 -0.02148,0.002 c -0.005,0.0018 -0.01218,0.0041 -0.01758,0.0059 0.007,0.162692 0.01734,0.360564 0.002,0.507805 -0.009,0.09998 -0.01878,0.205788 -0.02149,0.320308 -0.002,0.05635 -0.003,0.116972 0.002,0.179685 0.004,0.03272 0.0037,0.06221 0.0098,0.09765 0.006,0.03636 0.0086,0.06302 0.02344,0.109374 0.0164,0.06111 0.04327,0.120572 0.07617,0.175778 -0.16199,0.260717 -0.326269,0.646843 -0.447259,1.189437 -0.006,0.0029 -0.01273,0.0041 -0.01953,0.0039 h -0.002 c -0.22177,0.421726 -0.275374,1.79714 -0.222654,2.640589 0.0227,0.371736 0.04099,1.97094 0.341793,2.249969 0.005,0.0045 0.01092,0.0091 0.01562,0.01367 5.5e-4,0.003 9.53e-4,0.0068 0.002,0.0098 0.0569,0.320924 0.123096,0.655773 0.199216,1.005845 0.006,0.02752 0.01148,0.05628 0.01758,0.08398 0.0776,0.352013 0.165069,0.717376 0.263669,1.099594 0.008,0.03119 0.01524,0.06235 0.02344,0.09375 0.012,0.04596 0.02676,0.09422 0.03906,0.140623 -0.0034,-0.0023 -0.01054,-0.0038 -0.01367,-0.0059 0.08197,0.340319 0.213552,0.898432 0.373042,1.449199 l 20.888382,-10.09361 c 0.01083,-0.171386 0.02434,-0.341228 0.03516,-0.511712 l 0.01758,-0.292965 0.01172,-0.166013 0.0059,-0.08203 0.0039,-0.04102 0.002,-0.01953 v -0.0098 c -9.1e-4,-0.0018 -0.0068,-0.002 -0.0098,-0.002 -0.372639,-0.02909 -0.731778,-0.05762 -1.064438,-0.08398 -0.2972,-0.02454 -0.569144,-0.05294 -0.802723,-0.08203 -0.29331,-0.03709 -0.51812,-0.07004 -0.66796,-0.08789 l -0.01758,-0.0625 c -0.0518,-0.172689 -0.104438,-0.345926 -0.156247,-0.519524 -0.0418,-0.141787 -0.0832,-0.285032 -0.124999,-0.427728 -0.16724,-0.571693 -0.329357,-1.147847 -0.490227,-1.730445 -0.6435,-2.328576 -1.276921,-4.7252978 -1.96677,-7.1229483 C 28.800355,4.8818466 28.487645,3.824267 28.154086,2.7635925 28.069586,2.4991055 27.98366,2.2340773 27.89823,1.9686816 l -0.02539,-0.093749 c -0.009,-0.035447 -0.0166,-0.072882 -0.0293,-0.1074204 C 27.82084,1.6966192 27.79637,1.6266974 27.76737,1.5585307 27.712693,1.4204209 27.644051,1.2893377 27.564071,1.1620933 27.484971,1.0348487 27.388388,0.91660509 27.284778,0.80662944 27.176618,0.70210713 27.060194,0.60250364 26.929314,0.52343025 26.672585,0.36088794 26.378133,0.27024736 26.083623,0.23827795 25.155644,0.08467553 24.216033,0.00272667 23.278974,0 Z m -7.292867,15.505644 c -0.003,0.01499 -0.0067,0.03621 -0.0098,0.05078 -0.0746,0.01123 -0.150036,0.02521 -0.224606,0.03906 0.0769,-0.03002 0.163812,-0.06014 0.234372,-0.08984 z m 18.292715,5.01165 -18.763412,9.064327 c 0.315738,0.15757 0.632207,0.305014 0.916003,0.417963 0.35086,0.145531 0.636207,0.246432 0.773427,0.265622 0.005,0.0036 0.0061,0.0052 -0.0039,0.002 0.4353,0.13174 1.65952,0.512712 3.277299,0.814441 -0.0125,0.0081 -0.02296,0.01725 -0.03516,0.02539 -0.450599,0.0108 -0.878441,0.354443 -1.175765,0.947252 -0.955729,0.12392 -1.587256,1.078818 -1.718726,2.699182 v 0.002 c -3.2e-5,0.0029 0,0.01514 0,0.01562 -1.8e-4,0.0021 -0.0018,0.0038 -0.002,0.0059 -8e-5,0.0011 9e-5,0.0028 0,0.0039 -0.0167,0.211515 -0.02635,0.428985 -0.03125,0.648428 l -0.0293,-0.002 c 0.009,0.01148 0.0199,0.02199 0.0293,0.0332 -0.002,0.123651 -0.0039,0.249044 -0.0039,0.373042 3.6e-4,0.06941 0.0029,0.137864 0.0039,0.207028 l -0.01563,-0.002 c 0.005,0.0058 0.01143,0.01186 0.01563,0.01758 0.007,0.409144 0.02749,0.811272 0.05469,1.179671 0.0168,0.350757 0.04218,0.664652 0.08008,0.880847 0.0186,0.173422 0.03498,0.315658 0.05078,0.4414 2.8e-4,0.0019 -2.7e-4,0.002 0,0.0039 4.5e-4,0.0034 0.0015,0.0025 0.002,0.0059 0.0301,0.237327 0.05273,0.386713 0.05273,0.386713 v 0.002 c 0.006,0.0081 0.01148,0.01551 0.01758,0.02344 0.0099,0.01277 0.02108,0.02476 0.03125,0.03711 -0.51898,0.382643 -0.796694,1.068832 -0.689444,1.705055 0.10725,0.636223 0.6318,1.019145 1.24803,1.210921 l 0.0039,-0.0059 c 0.12124,-0.01437 0.241333,-0.02184 0.361323,-0.02734 0.0103,0.06016 0.02774,0.108481 0.05664,0.121092 0.0929,0.04045 0.479714,0.137537 0.941393,0.07227 0.0023,0.01904 0.0048,0.03769 0.0078,0.05664 0.0098,0.05338 0.02339,0.106872 0.04102,0.158201 -0.009,0.05032 -0.01689,0.104943 -0.02539,0.164061 l -0.05859,0.06641 c -0.0114,0.0088 -0.02406,0.01765 -0.03515,0.02734 -0.02615,0.02065 -0.04521,0.04566 -0.05859,0.07617 l -0.06445,0.07031 -0.002,0.0039 -0.0078,-0.0039 c 0.0035,0 0.0063,1.21e-4 0.0098,0 0.001,-0.01981 -0.02064,-0.04368 -0.05664,-0.07031 l -0.07031,-0.05469 0.0059,0.115233 c 0.01393,0.113226 0.05186,0.221785 0.109374,0.320308 0.0328,0.0608 0.07062,0.117508 0.105467,0.167967 -0.0049,0.03113 -0.0094,0.06224 -0.0098,0.09375 -0.07531,0.307228 -0.09668,0.626717 -0.06445,0.941394 0.0156,0.187522 0.03945,0.363804 0.06445,0.535148 -0.003,0.113488 -0.0066,0.222934 -0.01172,0.310543 -0.009,0.182687 -0.01794,0.368068 -0.02734,0.556633 -10e-4,0.03291 -0.0029,0.06478 -0.0039,0.09766 l -0.002,0.0039 c -0.04113,0.09547 -0.07169,0.193332 -0.09375,0.294918 -0.0128,0.05934 -0.01839,0.121001 -0.01563,0.181638 0.0018,0.03409 0.0081,0.0668 0.01758,0.09961 0.0052,0.01776 0.01138,0.03611 0.01953,0.05273 10e-4,0.0064 0.0094,0.01986 0.01758,0.0098 0.01301,-0.01172 0.02842,-0.02148 0.04492,-0.02734 0.004,-0.0016 0.0073,-0.0025 0.01172,-0.0039 0.002,0 -0.0039,0.0068 -0.0059,0.0098 -0.006,0.0074 -0.01188,0.0159 -0.01758,0.02344 -0.02091,0.02927 -0.03582,0.06285 -0.04492,0.09765 -0.01184,0.06028 -0.01811,0.120213 -0.01758,0.181638 0,0.02781 -3.6e-4,0.05671 0,0.08398 2.92e-4,0.03012 0.0034,0.06003 0.0078,0.08984 0.0078,0.06144 0.0255,0.120151 0.05273,0.175779 0.01911,0.03924 0.04903,0.0724 0.08594,0.0957 l 0.01563,0.0098 c 0.0019,10e-4 0.0038,0.0015 0.0059,0.002 0.0028,0.0012 0.0047,0.0022 0.0078,0.002 0.006,6.36e-4 0.01208,0 0.01758,0 0.01447,0.0028 0.02906,-0.0011 0.04102,-0.0098 0.004,-0.0043 -1.8e-4,0.0051 0,0.0078 l -0.002,0.01172 -0.002,0.02344 -0.0078,0.05469 c -0.0029,0.02523 -0.0022,0.05087 0,0.07617 0.004,0.07798 0.01163,0.154122 0.01953,0.22656 0.0038,0.09295 0.02531,0.184257 0.0625,0.269527 0.01622,0.03204 0.03774,0.05994 0.0625,0.08594 0.01393,0.0146 0.02858,0.02917 0.04492,0.04102 l 0.02539,0.01562 c 0.0025,0.0012 0.0037,0.0022 0.0059,0.0039 0.0078,0.0075 0.01862,0.01238 0.0293,0.01367 l 0.0059,0.002 c -2.2e-5,0.0031 6.43e-4,0.0068 0,0.0098 l -0.0039,0.01758 -0.0059,0.03125 c -0.001,0.0071 -0.0017,0.01435 -0.002,0.02148 l -0.002,0.03125 -0.002,0.0625 c -4.19e-4,0.04487 0.0015,0.09011 0.0059,0.134764 0.005,0.0449 0.01123,0.09036 0.01953,0.13281 0.008,0.04245 0.01705,0.08169 0.03125,0.130858 0.0075,0.0262 0.01479,0.05301 0.02539,0.07812 0.01354,0.03231 0.03126,0.06271 0.05078,0.0918 0.03862,0.05831 0.09084,0.105362 0.152342,0.138669 0.0146,0.0077 0.02912,0.01617 0.04492,0.02344 0.0158,0.0073 0.02651,0.01007 0.04102,0.01562 0.0145,0.0055 0.02882,0.01118 0.04492,0.01563 l 0.01172,0.0039 h 0.002 c 0.0046,0.0016 0.01073,0.0019 0.01563,0.002 0.004,0.0044 0.0019,0.01716 0.0039,0.02344 l 0.03906,0.08984 c 0.0177,0.03254 0.03599,0.06602 0.05469,0.09765 0.07681,0.117722 0.170681,0.223264 0.279293,0.312496 0.196873,0.158933 0.417691,0.285322 0.654287,0.374995 0.480882,0.186237 0.997861,0.260411 1.511698,0.216793 0.253609,-0.02002 0.503376,-0.07707 0.740224,-0.169919 0.238784,-0.09121 0.45555,-0.231777 0.63671,-0.412104 0.172956,-0.176055 0.301925,-0.391211 0.374995,-0.626944 0.06323,-0.211817 0.08703,-0.433727 0.07226,-0.654288 -0.02036,-0.248329 -0.07188,-0.491413 -0.154295,-0.726552 0.001,-0.02011 0.002,-0.03999 0.002,-0.06055 0.0017,-0.08155 4.68e-4,-0.16282 -0.0059,-0.244138 0.0508,0.05166 0.110507,0.09212 0.177732,0.119139 0.02752,0.01113 0.05707,0.02039 0.08594,0.02734 0.0081,0.003 0.01506,0.0039 0.02344,0.0059 0.0134,0.0033 0.02728,0.0054 0.04101,0.0039 -0.0044,0.01448 -0.0062,0.02988 -0.0078,0.04492 -5.37e-4,0.0066 -1.77e-4,0.0129 0,0.01953 0,0.0031 0.002,0.01044 0.002,0.01563 8.2e-4,0.0052 0.0058,0.02575 0.0098,0.03711 0.03802,0.113631 0.107656,0.214142 0.201169,0.289058 0.09725,0.07621 0.214801,0.122022 0.337886,0.132811 0.0151,0.0015 0.03012,0.0011 0.04492,0.002 0.0036,-8e-5 0.0063,0.0011 0.0098,0.002 0.0033,5.04e-4 0.0064,-1.02e-4 0.0098,0 0.0055,2.8e-4 0.01228,-4.81e-4 0.01758,-0.002 -8.49e-4,0.0068 -0.0022,0.0146 -0.002,0.02148 l 0.002,0.0098 v 0.0039 0.002 l 0.0078,0.01758 c 0.103341,0.216929 0.313416,0.363131 0.552727,0.38476 0.02885,0.0028 0.05697,0.0045 0.08594,0.0039 l 0.03711,-0.002 h 0.0059 c 0.001,0.003 0.002,0.0078 0.002,0.0098 l 0.01758,0.01953 c 0.01059,0.01338 0.02088,0.02726 0.0332,0.03906 0.02292,0.02378 0.04865,0.0455 0.07422,0.06641 0.42037,0.326109 0.900728,0.294336 1.271467,0.27734 0.201003,-0.01173 0.399772,-0.04365 0.593742,-0.09765 0.192764,-0.05575 0.37602,-0.139686 0.544914,-0.248043 0.31988,-0.198015 0.562556,-0.499918 0.685538,-0.855457 0.05067,-0.155914 0.07445,-0.32048 0.07031,-0.484368 -0.0055,-0.1421 -0.03143,-0.281022 -0.07617,-0.41601 0.0068,-0.103079 3.7e-5,-0.207554 -0.02148,-0.30859 -0.0094,-0.241813 -0.06557,-0.480114 -0.16406,-0.701162 -0.0251,-0.05871 -0.05904,-0.122611 -0.08594,-0.171873 l -0.08203,-0.144529 c -0.0553,-0.09598 -0.112656,-0.190264 -0.173826,-0.285152 -0.0612,-0.09489 -0.1246,-0.190311 -0.19531,-0.283199 -0.0352,-0.04626 -0.07255,-0.09109 -0.111326,-0.136717 l -0.05273,-0.05859 h -0.002 c -0.0014,-2.61e-4 -0.0026,-0.0014 -0.0039,-0.002 v -0.0039 c 0,-8.18e-4 -0.003,0.0028 0.002,-0.0078 l 0.03906,-0.08789 0.07226,-0.171873 c 0.046,-0.114762 0.09138,-0.230498 0.136717,-0.343745 0.079,-0.203517 0.15509,-0.403998 0.22656,-0.603507 0.0369,-0.03036 0.07349,-0.06041 0.109373,-0.0918 l 0.08203,-0.07422 c 0.04417,-0.03906 0.08447,-0.08269 0.121092,-0.128904 0.121343,-0.147177 0.151548,-0.349332 0.07812,-0.525383 0.06396,-0.02658 0.126076,-0.05906 0.183591,-0.09765 0.0812,-0.05453 0.14626,-0.101623 0.2207,-0.156248 0.0722,-0.05362 0.143448,-0.110341 0.212888,-0.171873 0.146517,-0.124786 0.268075,-0.277743 0.355464,-0.449212 0.07524,-0.165727 0.121024,-0.342101 0.136717,-0.523431 0.0129,-0.125229 0.01959,-0.241359 0.02539,-0.355463 0.258,0.07268 0.676834,0.08628 1.105453,-0.16992 0.0443,-0.02647 0.08612,-0.05641 0.126952,-0.08594 -0.0283,0.154935 -0.05664,0.309275 -0.08594,0.46679 -0.0273,0.143605 -0.05278,0.287257 -0.08008,0.433588 -0.007,0.03545 -0.01493,0.07342 -0.01953,0.115233 -0.0068,0.04025 -0.01132,0.08028 -0.01172,0.121092 -0.0036,0.04081 -0.0036,0.08224 0,0.123045 0.0012,0.04153 0.0072,0.08236 0.01563,0.123045 0.05753,0.339114 0.255156,0.638875 0.544914,0.824207 0.08952,0.0562 0.185408,0.100098 0.287105,0.128905 0.122637,0.02825 0.248051,0.04978 0.373042,0.06445 0.26177,0.03636 0.561142,0.07484 0.871082,0.109374 0.477629,0.05495 0.977506,0.101874 1.390606,0.128904 l 0.330073,0.05469 c 0.0444,0.0073 0.08899,0.01177 0.132811,0.01367 0.04502,0.0051 0.09141,0.0064 0.136717,0.0059 2.08e-4,0.008 8.29e-4,0.01549 0.002,0.02344 0,0 0.0068,-8e-6 0.0078,0 0.0069,6.32e-4 0.01454,0.0014 0.02148,0.002 0.07817,0.0086 0.157677,0.01321 0.236325,0.01367 0.119944,9.25e-4 0.2391,-0.0076 0.357417,-0.02734 0.22859,-0.03266 0.448625,-0.111406 0.646475,-0.230465 0.05457,-0.03349 0.106581,-0.07059 0.154295,-0.11328 0.0245,-0.0209 0.04371,-0.04862 0.06641,-0.07226 l 0.03516,-0.03711 0.02539,-0.04492 c 0.01958,-0.02929 0.03843,-0.05858 0.05469,-0.08984 0.01281,-0.03272 0.02228,-0.06564 0.03125,-0.09961 0.01704,-0.06702 0.03148,-0.136579 0.04102,-0.205075 0.005,-0.03454 0.01172,-0.06807 0.01172,-0.103515 v -0.05859 c 0.0025,-0.02359 -0.0022,-0.04759 -0.01367,-0.06836 -0.01778,-0.01485 -0.03632,-0.02794 -0.05664,-0.03906 l -0.04687,-0.02734 -0.05273,-0.02734 c 0.004,-0.01373 0.0058,-0.02722 0.0098,-0.04101 0.0554,-0.210862 0.108221,-0.431107 0.158201,-0.660147 0.100592,-0.451315 0.176192,-0.907748 0.228513,-1.367168 0.10159,-0.125299 0.200025,-0.249891 0.292964,-0.371089 0.0509,-0.06726 0.126405,-0.158875 0.210935,-0.259762 l 0.08398,-0.09766 c 0.01302,0.0092 0.02523,0.01751 0.03906,0.02539 0.08678,0.053 0.191019,0.07121 0.291012,0.05273 l 0.04297,-0.01367 c 0.0118,-0.0055 0.0193,-0.01017 0.0293,-0.01562 l 0.05273,-0.03516 c 0.0345,-0.02363 0.06676,-0.04681 0.09765,-0.07226 0.01131,-0.01 0.02238,-0.02075 0.0332,-0.03125 0.05296,0.01692 0.109251,0.02106 0.16406,0.01172 0.05453,-0.01417 0.104533,-0.04438 0.142576,-0.08594 0.01778,-0.01895 0.03327,-0.03842 0.04687,-0.06055 0.01169,-0.02068 0.02175,-0.04267 0.03125,-0.06445 0.02131,-0.05588 0.0291,-0.116245 0.02344,-0.175779 -0.0061,-0.07297 -0.02175,-0.144853 -0.04883,-0.212888 -0.03982,-0.101318 -0.100922,-0.192384 -0.177732,-0.269527 -0.0098,-0.02527 -0.02017,-0.05117 -0.03125,-0.07617 h 0.002 c -0.0152,-0.06779 -0.03521,-0.134532 -0.06055,-0.199216 -0.03263,-0.09024 -0.07897,-0.173362 -0.136717,-0.249997 -0.05507,-0.0734 -0.123033,-0.138293 -0.199216,-0.18945 -0.04415,-0.02914 -0.09308,-0.05018 -0.144529,-0.0625 -0.05088,-0.01231 -0.103842,-0.0079 -0.152342,0.01172 -0.044,-0.06607 -0.08732,-0.131715 -0.130857,-0.197263 -0.14633,-0.216314 -0.293884,-0.42867 -0.437494,-0.624991 -0.14772,-0.202946 -0.437524,-0.658302 -0.607413,-0.896472 0.01453,-0.06035 0.02644,-0.123819 0.0332,-0.18945 l 0.02734,0.0059 0.0293,0.0059 h 0.0293 c 0.01484,2.85e-4 0.03019,-1.37e-4 0.04492,-0.002 0.01183,0.03742 0.02341,0.07455 0.03711,0.111327 0.04907,0.118322 0.121602,0.226544 0.212887,0.316402 0.02563,0.02254 0.05265,0.04122 0.08203,0.05859 0.03588,0.01994 0.07564,0.03603 0.115233,0.04687 0.0182,-0.0091 0.03739,-0.01734 0.05469,-0.02734 l 0.04687,-0.02539 0.08203,-0.04687 c 0.0539,-0.0309 0.106834,-0.06311 0.160154,-0.09765 l 0.109374,-0.07227 c 0.0196,-0.01399 0.03734,-0.0303 0.05273,-0.04883 l 0.08008,-0.05859 c 0.0436,-0.03272 0.08901,-0.06417 0.130857,-0.09961 0.355896,-0.281705 0.671639,-0.60956 0.941393,-0.974596 0.141651,-0.194183 0.267632,-0.399212 0.376948,-0.613273 0.0239,5.45e-4 0.04897,0 0.07227,0 0.03276,-1.54e-4 0.06497,-0.0017 0.09766,-0.0039 0.04407,0.05268 0.0997,0.09633 0.162107,0.124998 0.06744,0.02401 0.1394,0.0266 0.208981,0.0098 0.03265,-0.0077 0.06495,-0.01782 0.0957,-0.03125 0.0273,-0.01545 0.05663,-0.0296 0.08203,-0.04687 0.06548,-0.04758 0.121463,-0.106954 0.16406,-0.175779 0.05354,-0.08716 0.09594,-0.181218 0.124999,-0.279293 0.04396,-0.145196 0.06245,-0.297707 0.05469,-0.449212 0.01216,-0.04915 0.0219,-0.09816 0.03125,-0.148436 0.03029,-0.08384 0.05523,-0.17071 0.07422,-0.257809 0.02912,-0.134261 0.04062,-0.271015 0.0332,-0.408197 -0.0062,-0.129618 -0.03454,-0.258138 -0.08203,-0.378901 -0.0263,-0.06824 -0.06307,-0.130608 -0.111326,-0.185545 -0.05522,-0.06509 -0.133932,-0.107581 -0.218747,-0.117185 -0.02565,-0.0012 -0.05082,0.0018 -0.07617,0.0059 l -0.0332,-0.0059 -0.146482,-0.02734 -0.01953,-0.0039 c -0.0453,-0.646796 -0.266382,-1.267373 -0.640616,-1.79685 -0.06293,-0.0866 -0.131237,-0.170676 -0.203122,-0.249997 -0.07,-0.09769 -0.143944,-0.191908 -0.222654,-0.281246 -0.0057,-0.0061 -0.01183,-0.01156 -0.01758,-0.01758 l 0.01758,-0.0039 c -0.0035,1.35e-4 -0.0063,-2.28e-4 -0.0098,0 l 0.01172,-0.002 c -0.0084,-9.15e-4 -0.01691,-0.0016 -0.02539,-0.002 -0.0172,-0.01853 -0.03513,-0.03654 -0.05273,-0.05469 -0.0439,-0.05137 -0.08929,-0.100303 -0.136717,-0.148435 -0.0255,-0.02727 -0.05488,-0.05685 -0.08398,-0.08594 l -0.04492,-0.04297 c -0.0173,-0.01363 -0.0352,-0.04102 -0.0625,-0.04102 -0.101371,-0.02271 -0.207287,-0.0057 -0.296871,0.04687 -0.179034,0.113124 -0.330437,0.266877 -0.4414,0.447259 -0.02895,0.04585 -0.05721,0.09151 -0.08398,0.13867 -0.004,-7.27e-4 -0.0078,-0.0013 -0.01172,-0.002 -0.288963,-0.08553 -0.582462,-0.156681 -0.878894,-0.210935 -0.0634,-0.01105 -0.127946,-0.0209 -0.193356,-0.03125 0.01524,-0.02044 0.02896,-0.04199 0.04101,-0.06445 0.1097,-0.200261 0.146381,-0.456745 0.126951,-0.732412 0.112577,-0.03511 0.223807,-0.07619 0.332027,-0.123045 0.143771,-0.05956 0.272316,-0.150426 0.376948,-0.265622 0.03473,-0.04012 0.05701,-0.08979 0.0625,-0.142576 0.0035,-0.01585 0.0035,-0.03102 0,-0.04687 -0.0015,-0.0078 -0.0046,-0.01614 -0.0078,-0.02344 -0.006,-0.02477 -0.02187,-0.048 -0.04297,-0.06836 0.02471,0.01884 0.04669,0.04091 0.06445,0.06641 -0.0153,-0.04872 -0.04649,-0.0902 -0.08984,-0.117186 -0.03922,-0.02708 -0.08369,-0.04742 -0.128905,-0.0625 -0.09398,-0.03212 -0.189997,-0.05147 -0.289058,-0.05859 -0.108394,-0.0085 -0.218124,-0.0083 -0.326167,0.0039 l -0.04297,0.0059 -0.05273,0.0098 c -0.0132,0.0023 -0.02626,0.0048 -0.03906,0.0078 -0.06431,-0.190577 -0.154737,-0.37194 -0.269528,-0.537102 -0.05883,-0.06273 -0.132926,-0.108556 -0.21484,-0.134764 0.02924,-0.08682 0.04313,-0.177944 0.04102,-0.269527 -0.0014,-0.150416 -0.05011,-0.296372 -0.13867,-0.417963 -0.216827,-0.271583 -0.569625,-0.39479 -0.908191,-0.316402 -0.06386,0.01582 -0.124603,0.04323 -0.177732,0.08203 -0.07392,0.05208 -0.135748,0.119352 -0.181638,0.197263 -0.04565,0.07904 -0.07168,0.168593 -0.07617,0.259762 -4.73e-4,0.03701 0.0037,0.07325 0.01172,0.109373 -0.006,0.0354 -0.0098,0.07355 -0.0098,0.111327 0.001,0.01234 0.0022,0.02289 0.0039,0.03516 -0.02204,0.18333 0.03578,0.367614 0.158201,0.505852 0.155529,0.168337 0.381207,0.254105 0.609366,0.232419 0.234122,-0.02189 0.44458,-0.147563 0.574211,-0.343745 0.06447,0.05207 0.122936,0.110369 0.173826,0.175778 0.07733,0.109782 0.144924,0.227672 0.201169,0.349605 -0.139224,0.04032 -0.27512,0.09058 -0.406245,0.152342 -0.07203,0.03285 -0.140418,0.07049 -0.207028,0.113279 -0.0714,0.04255 -0.137655,0.0965 -0.193357,0.158201 -0.03568,0.03642 -0.06175,0.08 -0.07617,0.128905 -0.0065,0.02749 -0.0065,0.05649 0,0.08398 0.0058,0.0227 0.0141,0.04491 0.02344,0.0664 0.03975,0.08188 0.109332,0.145916 0.195309,0.175779 0.146975,0.04572 0.303262,0.05471 0.455072,0.0293 0.14428,-0.01849 0.287102,-0.04484 0.427729,-0.08203 0.01045,0.131912 0.01045,0.262787 -0.002,0.394526 -0.01572,0.116538 -0.05222,0.231088 -0.105468,0.335933 -0.19299,-0.02924 -0.393157,-0.05741 -0.603507,-0.08594 l -0.49804,-0.07031 -0.130858,-0.01953 -0.06445,-0.0098 c -0.01704,-0.0026 -0.03426,-0.0049 -0.05078,-0.0098 -5.95e-4,-0.0077 -0.0013,-0.01575 -0.002,-0.02344 -7e-5,-0.0051 -0.0018,-0.01158 -0.002,-0.01758 l 0.0098,0.002 -0.0098,-0.0039 c -0.001,-0.03464 -0.0035,-0.07722 -0.01367,-0.136717 -0.0037,-0.04362 -0.0091,-0.08792 -0.01758,-0.130857 -0.0056,-0.02551 -0.01337,-0.05012 -0.02344,-0.07422 -0.0118,-0.02454 -0.02642,-0.04682 -0.04102,-0.07227 -0.03117,-0.05462 -0.07008,-0.104829 -0.117186,-0.146482 -0.02788,-0.02412 -0.06218,-0.04075 -0.09766,-0.05078 -0.0373,-0.0082 -0.06654,-0.01407 -0.10742,-0.01953 -0.01125,0.0017 -0.02205,0.0036 -0.0332,0.0059 -0.313233,-0.02781 -0.627588,0.03189 -0.910144,0.169919 -0.349148,0.163434 -0.66326,0.393776 -0.921862,0.679678 -0.264491,0.30057 -0.48215,0.639878 -0.644522,1.005846 -0.0715,-0.01494 -0.141387,-0.03255 -0.218747,-0.05273 -0.06093,-0.01299 -0.124233,-0.0066 -0.181638,0.01758 -0.0548,0.02375 -0.104659,0.05702 -0.148436,0.09765 -0.08484,0.07913 -0.156717,0.171921 -0.212888,0.273434 -0.116748,0.209965 -0.202697,0.435625 -0.255855,0.669912 -0.06181,0.25755 -0.08003,0.523857 -0.05078,0.787099 0.01297,0.08486 0.03856,0.166968 0.07617,0.244137 0.05125,0.114904 0.133083,0.214424 0.234372,0.289058 0.05889,0.03701 0.125912,0.05779 0.195309,0.0625 0.05766,0.0064 0.115818,0.0096 0.173826,0.0098 0.0091,-2.63e-4 0.01824,4.7e-4 0.02734,0 0.0062,0.171929 0.01861,0.34262 0.03711,0.513665 0.0645,0.523519 0.198629,1.04832 0.453119,1.474589 0.09314,0.159015 0.204729,0.306197 0.332027,0.439447 0.155996,0.163428 0.344269,0.291787 0.552727,0.378901 0.14872,0.06124 0.307999,0.09612 0.468743,0.101561 0.02175,0.0088 0.04328,0.01556 0.0664,0.01953 0.03562,0.0041 0.0718,0.0041 0.107421,0 0.06921,-0.01041 0.136579,-0.03127 0.199216,-0.0625 0.06442,-0.03238 0.122123,-0.07912 0.167966,-0.134764 0.04566,-0.05598 0.07991,-0.118583 0.101561,-0.187497 0.005,-0.01727 0.0092,-0.03456 0.01367,-0.05273 0.005,-0.01818 0.0048,-0.03601 0.0098,-0.06055 l 0.0059,-0.0293 0.591788,0.0918 c 0.22843,0.03625 0.466998,0.07518 0.716787,0.121092 -0.01962,0.156097 -0.02028,0.314685 0,0.470697 0.0115,0.05478 0.03467,0.106234 0.06641,0.152341 0.04737,0.07859 0.122748,0.136746 0.210934,0.162107 l 0.04101,0.0059 h 0.0293 l 0.05469,-0.0059 c 0.0354,-0.0055 0.07182,-0.0133 0.105468,-0.02148 0.0065,-0.002 0.01306,-0.0037 0.01953,-0.0059 0.03462,0.03566 0.07607,0.06185 0.123045,0.07812 0.02035,0.0046 0.04165,0.008 0.0625,0.0078 0.12885,0.220442 0.273078,0.458227 0.433588,0.710928 0.13088,0.207227 0.273586,0.421573 0.419916,0.640616 l 0.224606,0.332027 0.0059,0.0098 c -0.0014,0.0048 -0.0027,0.0089 -0.0039,0.01367 -0.01538,0.08053 -0.01798,0.162562 -0.0098,0.244137 0.02413,0.203892 0.07707,0.404033 0.160154,0.591789 -0.10831,0.09961 -0.223176,0.208821 -0.343745,0.326167 -0.0091,-0.02178 -0.01858,-0.04341 -0.0293,-0.06445 -0.08262,-0.128694 -0.193941,-0.236299 -0.324214,-0.316402 -0.06543,-0.0402 -0.132963,-0.07621 -0.203122,-0.10742 l -0.105468,-0.04687 c -0.0363,-0.01454 -0.07407,-0.02438 -0.111326,-0.03711 -0.58896,-0.193593 -1.237459,-0.262216 -1.921849,-0.347652 -0.282473,-0.01947 -0.566693,-0.01173 -0.847644,0.02344 -0.233569,0.02414 -0.464103,0.06245 -0.69335,0.11328 -0.04212,-0.0054 -0.0845,-0.0087 -0.126951,-0.0098 -0.254704,0.0045 -0.501841,0.09136 -0.701162,0.249997 -0.0635,-0.158779 -0.158593,-0.293477 -0.285153,-0.39062 l -0.002,-0.002 c 0.008,-0.07893 0.01423,-0.157986 0.01953,-0.238278 0.002,-0.03169 0.0039,-0.06386 0.0059,-0.0957 0.002,-0.03354 0.0029,-0.06594 0.0039,-0.09961 0.0264,-0.626322 -0.01939,-1.271702 -0.08789,-1.798804 -0.0895,-0.684584 -0.23845,-1.269833 -0.41015,-1.789037 h 0.002 c -0.14718,-0.44598 -0.311594,-0.843785 -0.468744,-1.208968 -0.435359,-1.008868 -0.775477,-1.385439 -1.183577,-1.539041 -0.0889,-0.03334 -0.174373,-0.0532 -0.253903,-0.06445 -0.128111,-0.197816 -0.270302,-0.362701 -0.423822,-0.488275 0.11033,-0.04268 0.218617,-0.08671 0.326167,-0.130857 0.0127,-0.0052 0.02636,-0.0104 0.03906,-0.01563 0.005,-0.0021 0.01063,-0.0038 0.01563,-0.0059 0.002,-8.18e-4 0.0039,-0.003 0.0059,-0.0039 1.499699,-0.451062 2.878937,-1.500565 3.521436,-2.290984 0.570789,-0.820727 0.874704,-2.099989 0.910144,-2.800742 -0.0157,0.0329 -0.05553,0.102718 -0.08203,0.154295 0.337611,-1.62307 0.3779,-3.483638 0.166014,-5.085867 z m 2.888632,7.398335 h 0.128904 0.02734 0.0059 c 0.008,0.0018 0.005,0.0078 0,0.0078 l -0.02148,0.0098 -0.0332,0.01367 c -0.08923,0.03505 -0.179065,0.06434 -0.271481,0.08984 -0.01698,0.0044 -0.03376,0.0094 -0.05078,0.01367 -0.009,-0.03863 -0.019,-0.07693 -0.0293,-0.115232 l 0.01563,-0.002 0.0332,-0.0039 0.06445,-0.0078 c 0.0391,-0.0073 0.09182,-0.0059 0.130858,-0.0059 z m -0.423823,0.06055 c 0.002,0.0058 0.0039,0.01177 0.0059,0.01758 0.01053,0.03332 0.0203,0.06779 0.0293,0.101561 -0.123699,0.03008 -0.249643,0.05591 -0.374995,0.07812 -0.05,0.0082 -0.09936,0.01953 -0.148435,0.01953 h -0.01758 l 0.06445,-0.03516 c 0.09408,-0.04626 0.190613,-0.08699 0.289059,-0.123045 l 0.07617,-0.02734 c 0.02317,-0.0064 0.0448,-0.01486 0.0664,-0.02539 z M 19.048564,40.46233 c 0.12327,0.155794 0.235123,0.447124 0.166013,0.707021 -0.004,-0.0057 -0.0081,-0.01179 -0.01172,-0.01758 -0.0933,-0.157427 -0.140775,-0.332704 -0.154295,-0.515617 -0.004,-0.05316 6e-5,-0.113856 0,-0.173826 z m 5.058524,4.070256 c 0.0104,2.89e-4 0.02085,-1.95e-4 0.03125,0 l 0.03125,0.0039 c 0.0289,0.0016 0.05704,-8.27e-4 0.08594,0 0.0021,0.02771 0.0052,0.05631 0.0078,0.08398 l 0.0059,0.05664 c 0.0046,0.02496 0.01203,0.04999 0.01953,0.07422 0.0116,0.0429 0.02346,0.08575 0.03516,0.128904 -0.02636,0.195497 -0.04129,0.392577 -0.04297,0.589836 -0.02993,0.05228 -0.0532,0.108252 -0.07031,0.166013 -0.01361,0.04972 -0.02591,0.09968 -0.03516,0.150389 -0.0108,-0.01937 -0.02015,-0.03958 -0.03125,-0.05859 -0.0182,-0.03208 -0.03764,-0.06516 -0.05664,-0.0957 l -0.01367,-0.02148 -0.0078,-0.01172 -0.002,-0.002 -0.0098,-0.01172 -0.0098,-0.01367 -0.002,-0.01367 c -0.002,-0.01924 -0.002,-0.03935 0,-0.05859 l 0.0078,-0.203122 c -0.0016,-0.242127 0.01303,-0.484576 0.04492,-0.724599 0.0034,-0.01342 0.008,-0.02573 0.01172,-0.03906 z" />
   <rect fill="currentColor" width="40" height="3" x="-8.3663521" y="33.386074" transform="rotate(-25.789121)" />
</svg>
