<?xml version="1.0" encoding="UTF-8"?>
<svg version="1.1" viewBox="0 0 124 124" width="100"
    xmlns="http://www.w3.org/2000/svg">
    <circle cx="62" cy="62" r="62" fill="#267dff"/>
    <g fill="#fff">
        <path d="m55.678 28.114c0.65578-0.57381 1.9673-0.16395 2.5412-0.16395 0.73776 0 7.1316-0.24592 8.0333-0.24592 0.9017 0 1.5575-0.24592 2.0493 0.16395 0.49184 0.40986 0.9017 2.951 1.3116 3.8527 0.40986 0.9017 8.5252 27.051 8.935 28.199 0.40986 1.1476 8.8531 25.903 9.2629 27.133 0.40986 1.2296 0.57381 2.6231 0.81972 2.869 0.24592 0.24592-4.3446 0.16395-5.902 0.24592-1.5575 0.08198-43.2 0.08198-44.593 0.08198-1.3935 0-2.4325 0.08731-2.6784-0.40453-0.24592-0.49184 0.46516-1.6448 0.87502-2.4645 0.40986-0.81972 9.6728-29.1 10.165-31.068 0.49184-1.9673 7.7874-23.526 8.0333-24.592 0.24592-1.0656 1.1476-3.6068 1.1476-3.6068z"/>
        <path d="m29.765 97.437c-0.57381-0.65579 0-1.3116 0.08198-2.0493 0.08198-0.73775-0.40986-1.8854-0.16395-2.2952 0.24592-0.40987 2.7871-0.08198 4.1806-0.08198 1.3935 0 55.659-0.32789 56.889-0.40986 1.2296-0.08198 3.4429-0.16395 3.6888 0.32789 0.24592 0.49183-0.08199 1.5575 0 2.5411 0.08199 0.98368 0.16394 1.5575-0.16394 1.8854-0.32789 0.3279-4.6724-0.08199-6.2299-0.08199-1.5575 0-53.118 0.16394-54.512 0.16394h-3.7707z"/>
        <path d="m84.079 60.373c3.7638-1.6524 11.153-3.7871 9.7308-11.016-1.7105-8.6968 8.262-13.586 12.209-13.403-4.4982 3.7638-7.344 8.3538-5.4162 15.239 3.0063 10.737-4.8654 14.78-13.403 18.911"/>
        <path d="m40.16 60.433c-3.7638-1.6524-11.153-3.7871-9.7308-11.016 1.7105-8.6968-8.262-13.586-12.209-13.403 4.4982 3.7638 7.344 8.3538 5.4162 15.239-3.0063 10.737 4.8654 14.78 13.403 18.911"/>
    </g>
</svg>
